HIERARCHY
ROOT pelvis
{
  OFFSET 0 100 0
  CHANNELS 6 Xposition Yposition Zposition Zrotation Xrotation Yrotation
  JOINT pelvis_right_femur
  {
    OFFSET -10.78128 -3.44521 -0.5502486
    CHANNELS 3 Zrotation Xrotation Yrotation
    JOINT right_femur_tibia
    {
      OFFSET -0.8047443 -44.0398 -0.1307829
      CHANNELS 3 Zrotation Xrotation Yrotation
      JOINT right_tibia_foot
      {
        OFFSET 3.006224 -47.83518 -5
        CHANNELS 3 Zrotation Xrotation Yrotation
        End Site
        {
          OFFSET 0 -5 15
        }
      }
    }
  }
  JOINT pelvis_left_femur
  {
    OFFSET 10.78128 -3.44521 -0.5502486
    CHANNELS 3 Zrotation Xrotation Yrotation
    JOINT left_femur_tibia
    {
      OFFSET 0.8047443 -44.0398 -0.1307829
      CHANNELS 3 Zrotation Xrotation Yrotation
      JOINT left_tibia_foot
      {
        OFFSET -4.370144 -48.10324 -4.275266
        CHANNELS 3 Zrotation Xrotation Yrotation
        End Site
        {
          OFFSET 0 -5 15
        }
      }
    }
  }
  JOINT pelvis_spine1
  {
    OFFSET 0 6.468898 -3.129235
    CHANNELS 3 Zrotation Xrotation Yrotation
    JOINT spine1
    {
      OFFSET 0 23.15396 4.99043
      CHANNELS 3 Zrotation Xrotation Yrotation
      JOINT spine2
      {
        OFFSET 0 20.79997 -5.064912
        CHANNELS 3 Zrotation Xrotation Yrotation
        JOINT neck
        {
          OFFSET 0 14.38658 9.616178
          CHANNELS 3 Zrotation Xrotation Yrotation
          End Site
          {
            OFFSET 0 20 0
          }
        }
      }
      JOINT right_manubrium
      {
        OFFSET -5.722621 16.35077 3.967754
        CHANNELS 3 Zrotation Xrotation Yrotation
        JOINT right_clavicle
        {
          OFFSET -13.16364 1.694482 -4.693211
          CHANNELS 3 Zrotation Xrotation Yrotation
          JOINT right_humerus
          {
            OFFSET -28.5034 -0.3100689 -2.792744
            CHANNELS 3 Zrotation Xrotation Yrotation
            JOINT right_radius
            {
              OFFSET -25.15693 0.02248979 -1.271978
              CHANNELS 3 Zrotation Xrotation Yrotation
              End Site
              {
                OFFSET -15 0 0
              }
            }
          }
        }
      }
      JOINT left_manubrium
      {
        OFFSET 5.722621 16.35077 3.967754
        CHANNELS 3 Zrotation Xrotation Yrotation
        JOINT left_clavicle
        {
          OFFSET 13.16364 1.694482 -4.693211
          CHANNELS 3 Zrotation Xrotation Yrotation
          JOINT left_humerus
          {
            OFFSET 29.39168 -1.063119 -2.237045
            CHANNELS 3 Zrotation Xrotation Yrotation
            JOINT left_radius
            {
              OFFSET 24.59957 -0.9528479 0.9047498
              CHANNELS 3 Zrotation Xrotation Yrotation
              End Site
              {
                OFFSET 15 -0 -0
              }
            }
          }
        }
      }
    }
  }
}
MOTION
Frames: 9
Frame Time: 0.0416666666667
0 103.5113 0 0.5243655 0.8072294 0.4621631 3.654748 -20.24327 10.47898 -0 42.0089 -0 -4.142206 -14.87328 -5.054933 -6.706041 9.266734 -23.08751 -0 1.566345 -0 2.937652 -20.33802 22.95043 -4.296922 -1.672633 3.903073 3.158276 8.335007 -8.543767 0.3065882 21.49915 8.423653 3.770607 -25.16563 9.100816 9.457204 -19.29023 12.23684 83.94267 41.40266 -19.51593 -0 0 16.68587 -7.894225 11.18502 7.321913 3.741913 -18.34508 -1.821729 -97.52128 37.27462 27.53904 0 0 -19.40735 -6.687699 13.31495 24.24825
0.3795969 103.6746 0.9963552 0.6916302 0.2277677 0.9976391 3.213171 -19.67825 10.29447 -0 43.88199 -0 -4.136269 -13.89296 -5.320705 -6.813705 9.18723 -22.73107 -0 2.184677 -0 2.688071 -20.20502 22.72687 -4.423492 -1.563528 3.847418 3.043367 8.606061 -8.543663 0.2586176 21.62125 8.419637 3.75866 -24.81883 8.953378 9.523006 -19.25028 12.30702 84.24074 41.26457 -19.66864 -0 0 16.41112 -8.618084 11.47603 7.696506 3.510106 -18.42649 -2.166536 -97.31367 37.52716 27.44298 0 0 -19.42163 -7.299519 12.95193 25.08138
0.7072076 103.5949 2.468957 0.5513859 0.3625783 1.502374 3.405586 -21.93694 8.968357 -0 39.22598 -0 -4.404053 -12.49538 -5.027652 -6.494718 10.82966 -21.66292 -0 2.14986 -0 2.575563 -20.73469 21.9136 -4.135295 -1.559955 3.547067 3.030813 8.595333 -8.660857 0.3375338 21.5669 8.370329 3.750888 -24.67526 8.951684 8.550355 -18.86894 12.05819 85.32419 39.882 -20.56243 -0 0 15.28426 -9.382315 11.24696 7.615289 4.194546 -19.24304 -2.354665 -94.94904 35.8685 24.36184 0 0 -20.9839 -5.224369 13.38058 22.11103
0.9875913 103.2671 4.45512 0.3402973 0.7222412 1.986763 3.667269 -24.43805 7.774954 -0 34.19392 -0 -4.51287 -11.30231 -4.813224 -6.144346 12.50002 -20.5646 -0 2.170694 -0 2.132773 -21.2742 20.82102 -3.804308 -1.543752 3.257522 3.068912 8.4837 -8.847339 0.3898141 21.40875 8.364693 3.734355 -24.63502 8.973141 7.674531 -18.43872 11.80516 86.3305 38.7328 -21.53238 -0 0 14.22183 -10.07095 11.18169 7.568074 4.832659 -20.00968 -2.457821 -92.85936 34.39473 21.58983 0 0 -22.75217 -3.507925 13.48404 19.68923
1.235944 102.7499 6.892626 0.05415723 1.317502 2.445244 4.065055 -26.65303 7.0016 -0 29.59281 -0 -4.510307 -10.68174 -4.626764 -5.814896 13.82521 -19.75925 -0 2.387698 -0 1.545102 -21.64596 19.76136 -3.459145 -1.550825 3.055068 3.161136 8.257887 -9.036186 0.4254566 21.17457 8.393755 3.723968 -24.78303 9.043434 7.046013 -18.05871 11.58751 87.00932 38.03844 -22.32484 -0 0 13.47767 -10.36893 11.1795 7.457574 5.342017 -20.53745 -2.385157 -91.46101 33.31189 19.67727 0 0 -24.22465 -2.263254 13.43227 17.9801
1.464316 102.0991 9.758033 -0.2934116 2.040236 2.876135 4.570104 -28.55973 6.510957 -0 25.4542 -0 -4.465497 -10.32147 -4.448037 -5.49927 14.87486 -19.12408 -0 3.052157 -0 0.8142381 -21.8062 18.68307 -3.088255 -1.572031 2.912938 3.277781 7.972594 -9.211421 0.4529646 20.89557 8.44327 3.723773 -25.05518 9.140552 6.580862 -17.69956 11.39612 87.49342 37.62914 -22.9958 -0 0 12.9143 -10.43361 11.21993 7.313814 5.743354 -20.8911 -2.205758 -90.50331 32.47852 18.34546 0 0 -25.41725 -1.318787 13.29129 16.73477
1.684856 101.3813 13.04918 -0.6995716 2.850169 3.278959 5.179232 -30.10925 6.264727 -0 21.85595 -0 -4.401539 -10.08897 -4.275452 -5.192327 15.65296 -18.60865 -0 4.333479 -0 -0.08750024 -21.7092 17.55074 -2.684485 -1.600758 2.822615 3.406741 7.646778 -9.365205 0.4745346 20.58167 8.509717 3.736518 -25.42933 9.25533 6.259513 -17.3452 11.22808 87.82858 37.46065 -23.56268 -0 0 12.48038 -10.32778 11.30718 7.157283 6.028925 -21.08159 -1.945391 -89.9029 31.87301 17.51713 0 0 -26.31375 -0.6490953 13.07321 15.91847
1.90966 100.6684 16.78782 -1.153142 3.682205 3.652988 5.868617 -31.24785 6.195399 -0 18.85614 -0 -4.354235 -9.821036 -4.109257 -4.893705 16.1703 -18.14036 -0 6.441287 -0 -1.178801 -21.30339 16.33351 -2.241315 -1.627042 2.772478 3.532343 7.311404 -9.48854 0.493178 20.25076 8.585098 3.763815 -25.86695 9.37203 6.050292 -16.97649 11.08262 88.07447 37.45932 -24.04516 -0 0 12.10216 -10.13989 11.44439 7.012392 6.193622 -21.13606 -1.642834 -89.56928 31.43502 17.09055 0 0 -26.91166 -0.2049737 12.78692 15.46111
2.150492 100.0388 21.01614 -1.632755 4.446567 3.993828 6.59648 -31.90382 6.21971 -0 16.51686 -0 -4.370294 -9.349789 -3.953485 -4.608306 16.43054 -17.63722 -0 9.624478 -0 -2.458969 -20.52942 15.02099 -1.7555 -1.638254 2.751395 3.636729 7.009421 -9.570921 0.5121565 19.92951 8.656646 3.805501 -26.31537 9.468471 5.917579 -16.5761 10.96364 88.29582 37.53448 -24.46112 -0 0 11.69522 -9.970137 11.6334 6.903511 6.231554 -21.09201 -1.347124 -89.41658 31.08461 16.95752 0 0 -27.21184 0.07310512 12.44203 15.27526
